<svg width="1440" height="794" viewBox="0 0 1440 794" fill="none" xmlns="http://www.w3.org/2000/svg">
<path opacity="0.4" d="M-134 514.197V69C-134 -41.457 -44.4569 -131 66 -131H1266.28C1374.93 -131 1463 -42.9266 1463 65.7173C1463 122.071 1438.83 175.719 1396.62 213.058L806.179 735.376C763.972 772.713 707.971 790.512 651.952 784.395L52.9783 718.984C20.1307 715.397 -11.3164 703.727 -38.5523 685.018L-47.2424 679.049C-101.55 641.743 -134 580.083 -134 514.197Z" fill="#EDF0FF"/>
<circle opacity="0.5" cx="148" cy="172" r="319" fill="#EEF0FF"/>
<g opacity="0.5">
<path d="M1274 175C1274 178.314 1271.09 181 1267.5 181C1263.91 181 1261 178.314 1261 175C1261 171.686 1263.91 169 1267.5 169C1271.09 169 1274 171.686 1274 175Z" fill="#1E2F97" fill-opacity="0.5"/>
<path d="M1296 175C1296 178.314 1293.09 181 1289.5 181C1285.91 181 1283 178.314 1283 175C1283 171.686 1285.91 169 1289.5 169C1293.09 169 1296 171.686 1296 175Z" fill="#1E2F97" fill-opacity="0.5"/>
<path d="M1318 175C1318 178.314 1315.09 181 1311.5 181C1307.91 181 1305 178.314 1305 175C1305 171.686 1307.91 169 1311.5 169C1315.09 169 1318 171.686 1318 175Z" fill="#1E2F97" fill-opacity="0.5"/>
<path d="M1274 202.5C1274 206.09 1271.09 209 1267.5 209C1263.91 209 1261 206.09 1261 202.5C1261 198.91 1263.91 196 1267.5 196C1271.09 196 1274 198.91 1274 202.5Z" fill="#1E2F97" fill-opacity="0.5"/>
<path d="M1296 202.5C1296 206.09 1293.09 209 1289.5 209C1285.91 209 1283 206.09 1283 202.5C1283 198.91 1285.91 196 1289.5 196C1293.09 196 1296 198.91 1296 202.5Z" fill="#1E2F97" fill-opacity="0.5"/>
<path d="M1318 202.5C1318 206.09 1315.09 209 1311.5 209C1307.91 209 1305 206.09 1305 202.5C1305 198.91 1307.91 196 1311.5 196C1315.09 196 1318 198.91 1318 202.5Z" fill="#1E2F97" fill-opacity="0.5"/>
<path d="M1274 230.5C1274 234.09 1271.09 237 1267.5 237C1263.91 237 1261 234.09 1261 230.5C1261 226.91 1263.91 224 1267.5 224C1271.09 224 1274 226.91 1274 230.5Z" fill="#1E2F97" fill-opacity="0.5"/>
<path d="M1296 230.5C1296 234.09 1293.09 237 1289.5 237C1285.91 237 1283 234.09 1283 230.5C1283 226.91 1285.91 224 1289.5 224C1293.09 224 1296 226.91 1296 230.5Z" fill="#1E2F97" fill-opacity="0.5"/>
<path d="M1318 230.5C1318 234.09 1315.09 237 1311.5 237C1307.91 237 1305 234.09 1305 230.5C1305 226.91 1307.91 224 1311.5 224C1315.09 224 1318 226.91 1318 230.5Z" fill="#1E2F97" fill-opacity="0.5"/>
<path d="M1274 257.5C1274 261.09 1271.09 264 1267.5 264C1263.91 264 1261 261.09 1261 257.5C1261 253.91 1263.91 251 1267.5 251C1271.09 251 1274 253.91 1274 257.5Z" fill="#1E2F97" fill-opacity="0.5"/>
<path d="M1296 257.5C1296 261.09 1293.09 264 1289.5 264C1285.91 264 1283 261.09 1283 257.5C1283 253.91 1285.91 251 1289.5 251C1293.09 251 1296 253.91 1296 257.5Z" fill="#1E2F97" fill-opacity="0.5"/>
<path d="M1318 257.5C1318 261.09 1315.09 264 1311.5 264C1307.91 264 1305 261.09 1305 257.5C1305 253.91 1307.91 251 1311.5 251C1315.09 251 1318 253.91 1318 257.5Z" fill="#1E2F97" fill-opacity="0.5"/>
<path d="M1274 285.5C1274 289.09 1271.09 292 1267.5 292C1263.91 292 1261 289.09 1261 285.5C1261 281.91 1263.91 279 1267.5 279C1271.09 279 1274 281.91 1274 285.5Z" fill="#1E2F97" fill-opacity="0.5"/>
<path d="M1296 285.5C1296 289.09 1293.09 292 1289.5 292C1285.91 292 1283 289.09 1283 285.5C1283 281.91 1285.91 279 1289.5 279C1293.09 279 1296 281.91 1296 285.5Z" fill="#1E2F97" fill-opacity="0.5"/>
<path d="M1318 285.5C1318 289.09 1315.09 292 1311.5 292C1307.91 292 1305 289.09 1305 285.5C1305 281.91 1307.91 279 1311.5 279C1315.09 279 1318 281.91 1318 285.5Z" fill="#1E2F97" fill-opacity="0.5"/>
<path d="M1274 313C1274 316.314 1271.09 319 1267.5 319C1263.91 319 1261 316.314 1261 313C1261 309.686 1263.91 307 1267.5 307C1271.09 307 1274 309.686 1274 313Z" fill="#1E2F97" fill-opacity="0.5"/>
<path d="M1296 313C1296 316.314 1293.09 319 1289.5 319C1285.91 319 1283 316.314 1283 313C1283 309.686 1285.91 307 1289.5 307C1293.09 307 1296 309.686 1296 313Z" fill="#1E2F97" fill-opacity="0.5"/>
<path d="M1318 313C1318 316.314 1315.09 319 1311.5 319C1307.91 319 1305 316.314 1305 313C1305 309.686 1307.91 307 1311.5 307C1315.09 307 1318 309.686 1318 313Z" fill="#1E2F97" fill-opacity="0.5"/>
</g>
<g opacity="0.1">
<path d="M569.354 487.094C570.401 504.1 557.047 518.542 540.012 518.827V518.827C524.021 519.095 510.65 506.732 509.668 490.769L501.111 351.798C500.064 334.792 513.418 320.35 530.454 320.065V320.065C546.445 319.797 559.815 332.16 560.798 348.123L569.354 487.094Z" fill="#C7CBE5"/>
<path d="M595.531 383.933C612.176 383.694 626.063 396.595 627.049 413.212V413.212C628.1 430.92 614.161 445.925 596.424 446.179L467.857 448.023C451.212 448.261 437.326 435.361 436.339 418.744V418.744C435.289 401.036 449.227 386.031 466.965 385.777L595.531 383.933Z" fill="#C7CBE5"/>
</g>
</svg>
