<svg width="250" height="250" viewBox="0 0 250 250" fill="none" xmlns="http://www.w3.org/2000/svg">
<circle cx="125" cy="125" r="116" stroke="#1E2F97" stroke-width="18"/>
<path fill-rule="evenodd" clip-rule="evenodd" d="M119.488 43.5625C121.327 43.5605 123.119 44.143 124.605 45.2258C126.091 46.3086 127.194 47.8357 127.756 49.5866L165.75 168.322L180.619 121.864C181.178 120.113 182.279 118.584 183.763 117.499C185.247 116.415 187.037 115.829 188.875 115.828H203.328C205.628 115.828 207.834 116.742 209.46 118.368C211.086 119.994 212 122.2 212 124.5C212 126.8 211.086 129.006 209.46 130.632C207.834 132.258 205.628 133.172 203.328 133.172H195.2L174.006 199.413C173.444 201.161 172.342 202.685 170.858 203.767C169.374 204.848 167.586 205.431 165.75 205.431C163.914 205.431 162.126 204.848 160.642 203.767C159.158 202.685 158.056 201.161 157.494 199.413L119.558 80.8631L93.0797 164.691C92.5334 166.419 91.4599 167.932 90.0098 169.018C88.5597 170.104 86.8059 170.708 84.9946 170.746C83.1833 170.785 81.4055 170.255 79.9108 169.231C78.4162 168.207 77.2797 166.741 76.6609 165.038L62.0459 124.847L61.2366 127.252C60.6617 128.978 59.5585 130.48 58.0831 131.544C56.6077 132.609 54.8349 133.182 53.0156 133.183H35.6719C33.372 133.183 31.1662 132.27 29.5399 130.644C27.9136 129.017 27 126.811 27 124.512C27 122.212 27.9136 120.006 29.5399 118.38C31.1662 116.753 33.372 115.84 35.6719 115.84H46.7719L53.455 95.7556C54.0216 94.045 55.1069 92.5533 56.5603 91.4879C58.0137 90.4226 59.7629 89.8364 61.5648 89.811C63.3666 89.7856 65.1316 90.3221 66.6145 91.346C68.0974 92.3699 69.2245 93.8304 69.8391 95.5244L84.2344 135.126L111.233 49.6328C111.786 47.8752 112.884 46.3393 114.368 45.2479C115.853 44.1564 117.646 43.5661 119.488 43.5625Z" fill="#1E2F97"/>
</svg>
